<?xml version="1.0" standalone="no"?>
<!DOCTYPE svg PUBLIC "-//W3C//DTD SVG 20010904//EN"
 "http://www.w3.org/TR/2001/REC-SVG-20010904/DTD/svg10.dtd">
<svg version="1.0" xmlns="http://www.w3.org/2000/svg"
 width="700.000000pt" height="700.000000pt" viewBox="0 0 700.000000 700.000000"
 preserveAspectRatio="xMidYMid meet">
<metadata>
Created by potrace 1.14, written by Peter Selinger 2001-2017
</metadata>
<g transform="translate(0.000000,700.000000) scale(0.100000,-0.100000)"
fill="#000000" stroke="none">
<path d="M3190 6344 c-307 -34 -592 -167 -825 -383 -48 -45 -166 -176 -179
-199 -5 -10 -16 -23 -23 -30 -25 -25 -109 -177 -140 -252 -30 -72 -52 -142
-60 -185 -2 -11 -7 -42 -13 -70 -23 -120 -30 -213 -35 -442 l-3 -182 106 -3
c59 -2 122 -2 140 0 l32 3 0 157 c1 452 54 630 264 891 80 99 162 176 251 235
121 81 297 152 437 176 103 19 303 20 411 4 170 -26 335 -89 478 -182 245
-160 456 -511 484 -807 3 -33 8 -78 10 -100 2 -22 5 -113 5 -202 1 -90 5 -165
9 -167 6 -4 218 -9 259 -7 11 1 12 43 7 214 -3 116 -7 230 -10 252 -2 22 -7
63 -10 90 -3 28 -9 65 -14 83 -6 18 -9 33 -9 35 1 1 -5 27 -12 57 -51 216
-275 553 -475 716 -287 233 -685 343 -1085 298z"/>
<path d="M3338 5826 c-1 -2 -32 -6 -68 -10 -96 -9 -129 -16 -194 -37 -67 -23
-186 -79 -186 -88 1 -3 25 -33 55 -66 l55 -59 62 23 c85 32 229 67 289 71 3 0
7 21 8 48 1 26 3 61 5 79 2 27 -13 50 -26 39z"/>
<path d="M2614 5443 c-94 -115 -147 -267 -160 -462 l-6 -91 58 -1 c33 -1 75
-2 94 -4 l35 -3 1 86 c2 139 48 287 124 397 18 26 30 49 27 51 -15 16 -112 84
-118 84 -4 0 -29 -26 -55 -57z"/>
<path d="M1919 4458 c-1 -2 -3 -63 -4 -135 l-2 -133 51 -1 c28 0 350 -1 716
-3 555 -2 671 -5 699 -17 l35 -15 -91 -12 c-106 -14 -190 -39 -197 -58 -14
-36 14 -51 184 -95 l45 -12 -77 -35 c-43 -19 -78 -40 -78 -47 0 -6 9 -20 20
-30 12 -10 19 -24 18 -31 -2 -7 -374 -387 -828 -844 -1435 -1446 -1750 -1765
-1750 -1770 0 -3 48 -54 106 -114 l105 -110 182 182 c100 100 416 413 702 697
286 284 762 757 1057 1052 l537 536 58 -49 c32 -27 334 -327 673 -668 1158
-1164 1645 -1651 1703 -1700 l58 -50 117 117 117 117 -25 23 c-99 94 -2566
2581 -2569 2590 -6 21 -34 37 -65 38 -27 0 -23 3 21 17 29 9 62 25 73 35 20
17 20 19 5 45 -9 15 -33 39 -53 55 -34 26 -34 27 -11 29 29 1 33 2 84 12 85
17 143 67 105 91 -5 3 -10 9 -10 13 0 4 266 7 590 7 389 0 590 3 590 10 0 5 1
66 2 135 l2 125 -1447 3 c-796 1 -1448 1 -1448 0z"/>
<path d="M3232 2700 c-71 -25 -113 -52 -157 -101 -51 -57 -76 -119 -82 -204
-15 -199 123 -381 302 -400 120 -13 232 24 310 102 125 127 147 310 55 453
-37 57 -96 107 -165 140 -68 32 -189 37 -263 10z"/>
<path d="M2136 1977 l-138 -133 21 -58 c79 -226 338 -472 661 -628 147 -71
276 -113 475 -154 17 -3 95 -7 175 -9 146 -3 243 7 385 41 417 100 815 413
969 762 l19 43 -36 37 c-19 20 -78 81 -130 135 -51 53 -96 97 -99 97 -3 0 -34
-51 -68 -112 -169 -307 -372 -491 -640 -581 -74 -25 -93 -29 -200 -47 -56 -9
-329 -7 -387 3 -356 62 -626 273 -818 639 l-52 99 -137 -134z"/>
</g>
</svg>
