<?xml version="1.0" encoding="UTF-8"?>
<!DOCTYPE svg PUBLIC "-//W3C//DTD SVG 1.1//EN" "http://www.w3.org/Graphics/SVG/1.1/DTD/svg11.dtd">
<!-- Creator: CorelDRAW 2019 (64-Bit) -->
<svg xmlns="http://www.w3.org/2000/svg" xml:space="preserve" width="24px" height="34px" version="1.1" style="shape-rendering:geometricPrecision; text-rendering:geometricPrecision; image-rendering:optimizeQuality; fill-rule:evenodd; clip-rule:evenodd"
viewBox="0 0 24 33.94"
 xmlns:xlink="http://www.w3.org/1999/xlink"
 xmlns:xodm="http://www.corel.com/coreldraw/odm/2003">
 <defs>
  <style type="text/css">
   <![CDATA[
    .fil3 {fill:#BFBFBF}
    .fil0 {fill:url(#id0)}
    .fil1 {fill:url(#id1)}
    .fil2 {fill:url(#id2)}
   ]]>
  </style>
  <linearGradient id="id0" gradientUnits="userSpaceOnUse" x1="-44.72" y1="6.62" x2="-24.96" y2="6.62">
   <stop offset="0" style="stop-opacity:1; stop-color:#659865"/>
   <stop offset="1" style="stop-opacity:1; stop-color:#1A3D21"/>
  </linearGradient>
  <linearGradient id="id1" gradientUnits="userSpaceOnUse" xlink:href="#id0" x1="-44.2" y1="-14.45" x2="-25.5" y2="-14.45">
  </linearGradient>
  <linearGradient id="id2" gradientUnits="userSpaceOnUse" xlink:href="#id0" x1="0.16" y1="16.41" x2="23.56" y2="16.41">
  </linearGradient>
 </defs>
 <g id="Слой_x0020_1">
  <metadata id="CorelCorpID_0Corel-Layer"/>
  <path class="fil0" d="M-39.58 -3.27c-1.41,0.12 -2.48,0.59 -3.45,1.5 -0.75,0.69 -1.47,1.82 -1.67,3.27 -0.08,0.63 -0.04,4.2 -0.04,4.91l0 3.71c0,0.4 -0.02,0.84 0.01,1.24 0.18,2.7 2.23,4.8 4.77,5.12 0.74,0.09 1.67,0.04 2.44,0.04l6.18 0c0.41,0 0.84,0.02 1.24,-0.01 2.71,-0.19 4.78,-2.21 5.12,-4.78 0.08,-0.63 0.04,-4.19 0.04,-4.9l0 -3.71c0,-0.41 0.02,-0.84 -0.01,-1.24 -0.18,-2.7 -2.23,-4.81 -4.78,-5.12 -0.74,-0.09 -1.65,-0.04 -2.43,-0.04l-6.18 0c-0.4,0 -0.85,-0.02 -1.24,0.01zm11.22 2.2c-0.57,0.06 -1.05,0.57 -0.97,1.22 0.07,0.57 0.59,1.04 1.24,0.96 0.55,-0.08 1.03,-0.58 0.94,-1.23 -0.07,-0.56 -0.56,-1.03 -1.21,-0.95zm-6.77 2.2c-1.18,0.07 -2.14,0.44 -3.02,1.09 -0.51,0.38 -0.99,0.9 -1.32,1.44 -0.18,0.28 -0.34,0.56 -0.48,0.91 -0.71,1.77 -0.44,3.86 0.72,5.36 0.31,0.41 0.63,0.74 1.03,1.04 0.13,0.1 0.25,0.19 0.4,0.28 0.25,0.18 0.59,0.35 0.91,0.47 0.76,0.3 1.45,0.42 2.36,0.39 0.76,-0.02 1.56,-0.28 2.15,-0.57 3.02,-1.5 4.03,-5.43 1.94,-8.23 -0.39,-0.51 -0.9,-0.99 -1.44,-1.33 -0.27,-0.17 -0.57,-0.33 -0.91,-0.47 -0.7,-0.27 -1.5,-0.44 -2.34,-0.38zm0.02 2.2c-1.74,0.15 -3.17,1.65 -3.02,3.57 0.14,1.72 1.67,3.17 3.57,3.01 1.72,-0.15 3.17,-1.64 3.01,-3.57 -0.14,-1.71 -1.65,-3.17 -3.56,-3.01z"/>
  <path class="fil1" d="M-40.83 -23.78c-2.01,0.24 -3.33,1.82 -3.37,3.64 -0.02,0.77 0,1.56 0,2.34l0 8.19c0,0.37 -0.02,0.79 0.01,1.15 0.21,1.98 1.84,3.33 3.66,3.36 0.77,0.02 1.56,0 2.34,0l7.02 0c0.72,0 1.62,0.05 2.32,-0.01 1.38,-0.14 2.32,-0.96 2.84,-1.82 0.3,-0.49 0.51,-1.12 0.52,-1.81 0.02,-0.78 0.01,-1.57 0.01,-2.35l0 -7.02c0,-0.71 0.04,-1.63 -0.02,-2.31 -0.13,-1.35 -0.98,-2.39 -1.83,-2.86 -0.54,-0.3 -1.08,-0.5 -1.83,-0.52 -0.77,-0.01 -1.56,0 -2.34,0 -0.44,0 -8.87,-0.03 -9.33,0.02zm1 1.87c-1.09,0.14 -1.82,0.77 -2.2,1.53 -0.27,0.52 -0.3,0.92 -0.3,1.57l0 7.49c0,0.57 -0.04,1.31 0.01,1.85 0.11,1.06 0.81,1.86 1.54,2.21 0.54,0.26 0.91,0.29 1.58,0.29l7.49 0c0.55,0 1.33,0.05 1.86,-0.01 1.07,-0.13 1.83,-0.79 2.19,-1.53 0.27,-0.53 0.31,-0.9 0.31,-1.57l0 -7.49c0,-0.56 0.04,-1.31 -0.02,-1.86 -0.12,-1.07 -0.81,-1.84 -1.54,-2.2 -0.54,-0.26 -0.91,-0.3 -1.58,-0.3l-7.49 0c-0.55,0 -1.34,-0.04 -1.85,0.02zm4.98 5.59c-1.25,-0.04 -2.12,-0.21 -2.98,-0.77 -0.57,-0.38 -1.07,-0.81 -1.39,-1.39 -0.11,-0.2 -0.2,-0.44 -0.31,-0.63 -0.13,0.15 -0.29,0.62 -0.34,0.87 -0.36,1.71 0.81,2.56 0.88,2.7 -0.53,0.24 -1.06,-0.1 -1.47,-0.27 -0.05,0.54 0.65,1.23 0.86,1.41 0.21,0.17 0.39,0.32 0.63,0.49 0.34,0.23 0.61,0.32 0.74,0.41l-0.14 0.04c-0.05,0.01 -0.12,0.01 -0.17,0.01 -0.47,0 -0.63,-0.07 -1.01,-0.11 0.09,0.4 0.71,0.92 0.97,1.13 0.45,0.36 0.74,0.55 1.49,0.62 -0.19,0.25 -1.03,0.7 -1.38,0.84 -0.72,0.28 -1.13,0.27 -1.95,0.25 0.02,0.02 0.01,0.02 0.04,0.04 0.11,0.09 0.57,0.32 0.69,0.37 0.87,0.39 1.85,0.54 2.83,0.54 2.51,-0.02 4.43,-1.29 5.61,-3.38 1.06,-1.88 0.8,-3.49 0.88,-3.65 0.11,-0.1 0.2,-0.16 0.31,-0.26 0.25,-0.24 0.66,-0.64 0.8,-0.95 -0.29,0.08 -0.76,0.33 -1.26,0.35 0.07,-0.07 0.22,-0.17 0.3,-0.24 0.12,-0.09 0.18,-0.17 0.28,-0.29 0.11,-0.14 0.33,-0.5 0.37,-0.74 -0.25,0.08 -0.44,0.28 -1.26,0.51 -0.24,0.06 -0.21,-0.02 -0.37,-0.15 -1.04,-0.85 -2.38,-0.75 -3.26,0.29 -0.44,0.51 -0.43,1.14 -0.39,1.96z"/>
  <path class="fil2" d="M2.25 7.23c-0.77,0.13 -1.3,0.53 -1.64,1 -0.48,0.66 -0.46,1.24 -0.46,2.2l0 10.55c0,0.81 -0.06,1.88 0.01,2.66 0.08,0.82 0.53,1.37 0.96,1.7 0.62,0.48 1.15,0.52 2.09,0.52l15.9 0c1.68,0 3.25,0.33 4.24,-1.03 0.48,-0.67 0.47,-1.25 0.47,-2.2l0 -10.55c0,-1.81 0.34,-3.33 -0.96,-4.36 -0.62,-0.48 -1.17,-0.53 -2.1,-0.53l-15.9 0c-0.71,0 -1.97,-0.07 -2.61,0.04zm0.39 16.11l18.67 0 0.01 -11.23c-0.03,-0.14 0.03,-0.09 -0.08,-0.07 -0.21,0.09 -1.14,1.04 -1.39,1.29l-1.14 1.05c-0.1,0.09 -0.17,0.18 -0.27,0.27 -0.21,0.18 -0.34,0.31 -0.55,0.52l-1.95 1.85c-0.1,0.1 -0.18,0.16 -0.29,0.25l-0.83 0.79c-0.11,0.09 -0.18,0.19 -0.29,0.28 -0.21,0.19 -0.34,0.31 -0.55,0.53 -0.18,0.18 -0.39,0.32 -0.56,0.51 -0.85,0.89 -2.05,1.11 -3.06,0.34 -0.47,-0.35 -2.77,-2.69 -3.31,-3.22 -0.37,-0.36 -0.72,-0.7 -1.09,-1.06 -0.37,-0.36 -0.72,-0.73 -1.09,-1.1l-1.66 -1.61c-0.17,-0.17 -0.37,-0.4 -0.57,-0.55l0 11.16zm9.09 -5.76c0.17,-0.2 0.32,-0.32 0.5,-0.49l2.09 -1.97c0.2,-0.21 0.32,-0.32 0.52,-0.49l2.08 -1.97c0.38,-0.41 1.56,-1.47 2.08,-1.98 0.17,-0.17 0.36,-0.3 0.52,-0.48 0.14,-0.16 0.45,-0.39 0.52,-0.51l-16.33 -0.01c0.12,0.2 1.77,1.78 1.97,1.98 0.39,0.38 5.87,5.84 6.05,5.92z"/>
  <path class="fil3" d="M21.25 12.04c0.11,-0.02 0.05,-0.07 0.08,0.07l-0.01 11.23 -18.67 0c0.14,0.1 2.14,0.04 2.3,0.04 4.67,0 9.35,0 14.03,0 0.75,0 1.62,0.04 2.36,0l0.01 -11.45c-0.09,0.06 -0.06,0.04 -0.1,0.11z"/>
 </g>
</svg>
