<?xml version="1.0" encoding="UTF-8"?>
<!DOCTYPE svg PUBLIC "-//W3C//DTD SVG 1.1//EN" "http://www.w3.org/Graphics/SVG/1.1/DTD/svg11.dtd">
<!-- Creator: CorelDRAW 2019 (64-Bit) -->
<svg xmlns="http://www.w3.org/2000/svg" xml:space="preserve" width="24px" height="34px" version="1.1" style="shape-rendering:geometricPrecision; text-rendering:geometricPrecision; image-rendering:optimizeQuality; fill-rule:evenodd; clip-rule:evenodd"
viewBox="0 0 24 33.94"
 xmlns:xlink="http://www.w3.org/1999/xlink"
 xmlns:xodm="http://www.corel.com/coreldraw/odm/2003">
 <defs>
  <style type="text/css">
   <![CDATA[
    .str0 {stroke:black;stroke-width:0.01;stroke-miterlimit:22.9256}
    .fil0 {fill:none}
    .fil1 {fill:url(#id2)}
   ]]>
  </style>
   <clipPath id="id0">
    <path d="M58.73 42.5l64.51 0 0 -64.51 -64.51 0 0 64.51z"/>
   </clipPath>
   <clipPath id="id1">
    <path d="M58.73 42.5l64.51 0 0 -64.51 -64.51 0 0 64.51z"/>
   </clipPath>
  <linearGradient id="id2" gradientUnits="userSpaceOnUse" x1="0.52" y1="16.96" x2="23.65" y2="16.96">
   <stop offset="0" style="stop-opacity:1; stop-color:#659865"/>
   <stop offset="1" style="stop-opacity:1; stop-color:#1A3D21"/>
  </linearGradient>
 </defs>
 <g id="Слой_x0020_1">
  <metadata id="CorelCorpID_0Corel-Layer"/>
  <g>
  </g>
  <g style="clip-path:url(#id0)">
   <g>
   </g>
  </g>
  <polygon class="fil0" points="58.73,42.5 123.24,42.5 123.24,-22.01 58.73,-22.01 "/>
  <g style="clip-path:url(#id1)">
   <path id="1" class="fil0 str0" d="M58.73 -22.01l64.51 64.51m0 -64.51l-64.51 64.51"/>
  </g>
  <path class="fil1" d="M6.54 5.39c-1.64,0.14 -2.9,0.69 -4.04,1.75 -0.87,0.81 -1.72,2.14 -1.95,3.84 -0.1,0.73 -0.05,4.91 -0.05,5.74l0 4.34c0,0.47 -0.02,0.98 0.01,1.45 0.21,3.16 2.61,5.61 5.59,5.99 0.87,0.11 1.95,0.05 2.85,0.05l7.23 0c0.48,0 0.99,0.02 1.46,-0.01 3.17,-0.22 5.58,-2.59 5.98,-5.6 0.1,-0.73 0.06,-4.9 0.06,-5.73l0 -4.34c0,-0.48 0.01,-0.99 -0.02,-1.46 -0.21,-3.15 -2.61,-5.62 -5.6,-5.98 -0.86,-0.11 -1.93,-0.06 -2.84,-0.06l-7.23 0c-0.46,0 -1,-0.02 -1.45,0.02zm13.13 2.57c-0.67,0.07 -1.23,0.67 -1.13,1.44 0.08,0.66 0.69,1.21 1.45,1.11 0.64,-0.09 1.2,-0.68 1.1,-1.44 -0.08,-0.65 -0.67,-1.19 -1.42,-1.11zm-7.92 2.57c-1.38,0.09 -2.51,0.52 -3.54,1.29 -0.59,0.44 -1.15,1.05 -1.55,1.67 -0.2,0.33 -0.39,0.67 -0.55,1.07 -0.84,2.07 -0.51,4.52 0.83,6.27 0.37,0.48 0.75,0.87 1.21,1.22 0.15,0.12 0.3,0.22 0.47,0.34 0.3,0.2 0.7,0.4 1.07,0.55 0.88,0.35 1.7,0.49 2.76,0.45 0.89,-0.03 1.83,-0.33 2.52,-0.67 3.52,-1.75 4.71,-6.35 2.26,-9.63 -0.45,-0.6 -1.05,-1.16 -1.67,-1.55 -0.33,-0.21 -0.68,-0.4 -1.07,-0.55 -0.83,-0.33 -1.76,-0.52 -2.74,-0.46zm0.02 2.58c-2.03,0.18 -3.71,1.93 -3.53,4.18 0.16,2.01 1.95,3.71 4.18,3.52 2.01,-0.17 3.7,-1.92 3.52,-4.17 -0.17,-2.01 -1.93,-3.71 -4.17,-3.53z"/>
 </g>
</svg>
