<?xml version="1.0" encoding="UTF-8"?>
<!DOCTYPE svg PUBLIC "-//W3C//DTD SVG 1.1//EN" "http://www.w3.org/Graphics/SVG/1.1/DTD/svg11.dtd">
<!-- Creator: CorelDRAW 2019 (64-Bit) -->
<svg xmlns="http://www.w3.org/2000/svg" xml:space="preserve" width="210mm" height="103mm" version="1.1" style="shape-rendering:geometricPrecision; text-rendering:geometricPrecision; image-rendering:optimizeQuality; fill-rule:evenodd; clip-rule:evenodd"
viewBox="0 0 21000 10300"
 xmlns:xlink="http://www.w3.org/1999/xlink"
 xmlns:xodm="http://www.corel.com/coreldraw/odm/2003">
 <defs>
  <style type="text/css">
   <![CDATA[
    .str0 {stroke:black;stroke-width:7.62;stroke-miterlimit:22.9256}
    .fil6 {fill:#1F1B20}
    .fil1 {fill:black}
    .fil4 {fill:black}
    .fil0 {fill:#141515}
    .fil5 {fill:#258B51}
    .fil3 {fill:#3D6E95}
    .fil2 {fill:#C84141}
   ]]>
  </style>
 </defs>
 <g id="Слой_x0020_1">
  <metadata id="CorelCorpID_0Corel-Layer"/>
  <path class="fil0" d="M17803.87 5837.65c744.41,310.05 737.58,1417.75 20.96,1708.39 -517.06,209.69 -1112.56,-29.88 -1272.36,-580.28 -218.53,-752.56 539.22,-1424.76 1251.4,-1128.11zm436.11 -1966c376.85,606.94 -82.36,1397.01 -797.2,1415.69 -210.98,5.54 -457.08,-6.21 -818.51,254.04 -613.86,442.03 -784.58,1314.07 -348.19,1940.67 435.13,624.84 1227.71,787.91 1880.89,424.04 472.31,-263.09 749.24,-831.76 679.87,-1395.91 -47.36,-385.23 -285.75,-754.2 -617.51,-988.7 39.72,-31.07 80.89,-56.89 119.55,-88.84 73.57,-60.8 141.58,-130.39 201.36,-204.63 449.64,-558.37 399.43,-1366.67 -100.38,-1870.94 -245.84,-248.02 -609.45,-414.06 -961.41,-414.77l-495.62 495.37c330.72,0 573.18,-74.25 892.7,88.49 133.41,67.96 254.5,168.4 364.45,345.49z"/>
  <path class="fil1" d="M11338.36 5589.16c-7.13,693.74 -854.78,1147.44 -1447.43,726.8 -227.71,-161.62 -385.07,-419.78 -408.79,-708.36 -36.85,-448.21 274.52,-867.87 711.48,-967.72 525.62,-120.11 1152.52,189.84 1144.74,949.28zm476.65 23.01c67.47,-811.77 -638.59,-1471.69 -1432.54,-1474.47 -767.82,-2.65 -1371.85,642.55 -1380.43,1407.18 -9.04,796.78 680.64,1443.7 1468.94,1402.4 757.55,-39.64 1282.27,-591.76 1344.03,-1335.11z"/>
  <polygon class="fil2" points="18118.63,477.61 18439.77,798.75 14251.59,4986.96 14621.6,5149.1 18705.86,1064.84 19030.88,1389.86 19466.19,35.72 "/>
  <polygon class="fil3" points="19890.2,8124.09 20975.68,8124.23 20975.81,2966.41 19890.2,2967.23 19890.21,3438.04 20481.74,3437.42 20481.73,7641.81 19890.13,7640.26 "/>
  <polygon class="fil3" points="516.59,3435.24 1109.38,3438.58 1108.24,2963.56 16.4,2970.92 21.01,8124.46 1109.38,8124.46 1109.38,7640.47 518.4,7639.91 "/>
  <polygon class="fil4" points="15063.89,3446.77 15526.26,2977.73 10383.63,2966.93 9919.45,3431.1 "/>
  <polygon class="fil2" points="11009.11,8761.61 13659.88,6110.82 13259.81,5978.73 10743.02,8495.52 "/>
  <path class="fil1 str0" d="M3095.89 5266.61c-469.23,-107.71 -724.15,-535.35 -712.27,-904.11 12.6,-391.67 215.33,-761.78 714.49,-904.68l-12.64 -490.89c-1518.53,278.19 -1618.11,2490.94 10.42,2791.15l0 -491.47z"/>
  <path class="fil4" d="M4242.67 6713.39c0.12,410.21 -271.61,720.66 -640.81,858.44l0.32 493.14c312.46,-84.37 478.15,-182.75 664.65,-342.73 162.67,-139.55 273.3,-312.5 348.53,-500.59 215.94,-540.06 102.83,-1017.84 -240.09,-1456.73 -132.29,-169.3 -556.33,-421.44 -772.6,-454.27l1.3 493.77c422.06,109.55 614.65,507.85 638.7,908.97z"/>
  <path class="fil5" d="M12671.28 5982.73c219.77,-99.51 305.71,-286.69 631.66,-322.58 902.2,-99.35 821.41,777.25 2223.64,75.89l4.63 -586.57c-616.36,423.95 -635.73,427.64 -1406.55,124.01 -696.26,-274.28 -964.01,-163.21 -1451.82,139.76l-1.56 569.49z"/>
  <path class="fil6" d="M3588.99 2969.22l0.06 469.36 1736.08 -8.61 -0.03 4688.27 463.89 2.88 1.66 -2608.64c107.49,188.58 180.58,867.44 384.8,43.94 111.53,184.39 137.58,382.36 432.46,128.67l4595.31 4595.31 309.14 -309.13 -4446 -4446.98 4444.76 -4447.22 -315.54 -315.54 -4587.67 4587.66c-310.23,310.21 -186.71,-111.26 -413.23,-176.67 -127.12,52.66 -91.25,145.45 -171.26,248.14 -6.56,-332.64 -21.72,-592.3 -234.43,-373.53l0.73 -1608.27 1882.33 -2.9 469.04 -469.04 -4552.1 2.3z"/>
  <polygon class="fil4" points="1907.56,8123.25 3091.16,8124.23 3095.79,7640.33 1907.63,7640.26 "/>
 </g>
</svg>
