<?xml version="1.0" encoding="UTF-8"?>
<!DOCTYPE svg PUBLIC "-//W3C//DTD SVG 1.1//EN" "http://www.w3.org/Graphics/SVG/1.1/DTD/svg11.dtd">
<!-- Creator: CorelDRAW 2019 (64-Bit) -->
<svg xmlns="http://www.w3.org/2000/svg" xml:space="preserve" width="210mm" height="210mm" version="1.1" style="shape-rendering:geometricPrecision; text-rendering:geometricPrecision; image-rendering:optimizeQuality; fill-rule:evenodd; clip-rule:evenodd"
viewBox="0 0 21000 21000"
 xmlns:xlink="http://www.w3.org/1999/xlink"
 xmlns:xodm="http://www.corel.com/coreldraw/odm/2003">
 <defs>
  <style type="text/css">
   <![CDATA[
    .fil0 {fill:#434242}
   ]]>
  </style>
 </defs>
 <g id="Слой_x0020_1">
  <metadata id="CorelCorpID_0Corel-Layer"/>
  <g id="_2531171688224">
   <path class="fil0" d="M5739.02 8436.21l4172.29 9.83c128.92,0.29 286.68,69.05 347.6,97.86 -326.08,24.35 -897.94,87.8 -900.52,243.78 -1.23,74.21 87.87,149.44 725.05,269.58 -488.11,256.41 -623.95,153.7 -340.33,440.9l-7775.44 7839.29 645.9 674.43 7436.16 -7399.61c412.7,257.48 6915.01,7002.58 7470.71,7396.77l700.33 -694.83 -7789.57 -7832.37c79.12,-199.79 -594.06,-91.3 -244.23,-151.01 559.72,-95.53 434.11,-272.84 93.74,-508.49 615.38,-29.85 868.59,-280.77 534.35,-375.91l3619.88 0 6.35 -828.21 -8699.16 0.45 -3.11 817.54z"/>
   <path class="fil0" d="M5739.17 7195.66l827.12 11.3c0,-1509.02 -17.47,-2128.9 779.92,-3144.76 1492.77,-1901.73 4351.71,-1540.96 5443.37,-59.36 777.49,1055.18 806.53,1609.83 808.8,3193.89l827.12 10.03c0,-1924.44 -70.58,-2492.22 -1019.05,-3751.35 -1348.96,-1790.86 -4672.4,-2246.21 -6619.61,-22.34 -965.75,1102.97 -1047.67,1995.72 -1047.67,3762.59z"/>
   <path class="fil0" d="M5999.38 15469.61c334.95,1297.38 2334.99,2566.41 4075.87,2559.7 1934.16,-7.44 3551.12,-1285.58 4035.17,-2553.51l-343.04 -352.65 -453.96 -466.67c-208.39,249.02 -852.7,2263.92 -3237.82,2269.78 -1652.45,4.05 -2650.57,-902.69 -3251.53,-2264.68l-824.69 808.03z"/>
   <path class="fil0" d="M9705.5 12892.76c-1350.58,448.83 -702.79,2561.46 745.01,2061.39 434.89,-150.2 836.27,-721.77 658.33,-1338.62 -138.83,-481.31 -735.24,-944.8 -1403.34,-722.77z"/>
   <path class="fil0" d="M7353.75 6321.17l551.71 33.4c-40.02,-566.92 105.62,-1116.68 472.36,-1595.29l-363.96 -272.22c-573.11,538.07 -657.25,1220.11 -660.11,1834.11z"/>
   <path class="fil0" d="M8655.24 3922.67l353.7 386.79c274.43,-138.77 692.01,-256.25 1059.82,-283.87l22.6 -500.15c-596.36,23.61 -990.12,137.73 -1436.12,397.23z"/>
  </g>
 </g>
</svg>
