<?xml version="1.0" encoding="UTF-8"?>
<!DOCTYPE svg PUBLIC "-//W3C//DTD SVG 1.1//EN" "http://www.w3.org/Graphics/SVG/1.1/DTD/svg11.dtd">
<!-- Creator: CorelDRAW 2019 (64-Bit) -->
<svg xmlns="http://www.w3.org/2000/svg" xml:space="preserve" width="24px" height="34px" version="1.1" style="shape-rendering:geometricPrecision; text-rendering:geometricPrecision; image-rendering:optimizeQuality; fill-rule:evenodd; clip-rule:evenodd"
viewBox="0 0 24 33.94"
 xmlns:xlink="http://www.w3.org/1999/xlink"
 xmlns:xodm="http://www.corel.com/coreldraw/odm/2003">
 <defs>
  <style type="text/css">
   <![CDATA[
    .fil3 {fill:#1A3D21}
    .fil2 {fill:#659865}
    .fil0 {fill:url(#id0)}
    .fil1 {fill:url(#id1)}
   ]]>
  </style>
  <linearGradient id="id0" gradientUnits="userSpaceOnUse" x1="-54.22" y1="5.36" x2="-31.09" y2="5.36">
   <stop offset="0" style="stop-opacity:1; stop-color:#659865"/>
   <stop offset="1" style="stop-opacity:1; stop-color:#1A3D21"/>
  </linearGradient>
  <linearGradient id="id1" gradientUnits="userSpaceOnUse" xlink:href="#id0" x1="1.47" y1="16.96" x2="23.36" y2="16.96">
  </linearGradient>
 </defs>
 <g id="Слой_x0020_1">
  <metadata id="CorelCorpID_0Corel-Layer"/>
  <path class="fil0" d="M-48.2 -6.21c-1.65,0.13 -2.9,0.69 -4.04,1.75 -0.87,0.81 -1.73,2.14 -1.95,3.83 -0.1,0.74 -0.06,4.92 -0.06,5.75l0 4.33c0,0.48 -0.01,0.99 0.02,1.46 0.21,3.16 2.61,5.61 5.58,5.98 0.87,0.11 1.96,0.06 2.86,0.06l7.23 0c0.47,0 0.99,0.02 1.46,-0.01 3.16,-0.22 5.58,-2.59 5.98,-5.6 0.1,-0.74 0.05,-4.91 0.05,-5.74l0 -4.34c0,-0.47 0.02,-0.98 -0.01,-1.45 -0.21,-3.15 -2.61,-5.62 -5.6,-5.99 -0.87,-0.1 -1.93,-0.05 -2.84,-0.05l-7.23 0c-0.47,0 -1,-0.02 -1.45,0.02zm13.13 2.57c-0.67,0.07 -1.23,0.67 -1.14,1.43 0.09,0.66 0.7,1.22 1.45,1.12 0.64,-0.09 1.21,-0.68 1.11,-1.44 -0.09,-0.65 -0.67,-1.2 -1.42,-1.11zm-7.93 2.57c-1.37,0.09 -2.5,0.52 -3.53,1.29 -0.6,0.44 -1.15,1.04 -1.55,1.67 -0.21,0.33 -0.39,0.67 -0.55,1.07 -0.84,2.07 -0.52,4.52 0.83,6.27 0.37,0.48 0.74,0.87 1.21,1.22 0.15,0.12 0.3,0.22 0.47,0.33 0.3,0.2 0.69,0.41 1.07,0.55 0.88,0.35 1.7,0.49 2.76,0.46 0.89,-0.03 1.82,-0.33 2.52,-0.67 3.52,-1.75 4.71,-6.35 2.26,-9.63 -0.45,-0.6 -1.05,-1.16 -1.68,-1.55 -0.32,-0.21 -0.67,-0.4 -1.07,-0.56 -0.82,-0.32 -1.75,-0.51 -2.74,-0.45zm0.03 2.58c-2.03,0.17 -3.71,1.93 -3.53,4.17 0.16,2.02 1.95,3.72 4.17,3.53 2.01,-0.18 3.71,-1.92 3.52,-4.17 -0.16,-2.01 -1.93,-3.72 -4.16,-3.53z"/>
  <path class="fil1" d="M5.41 6.04c-2.34,0.28 -3.89,2.13 -3.94,4.26 -0.02,0.9 0,1.83 0,2.73l0 9.59c0,0.43 -0.03,0.93 0.02,1.34 0.25,2.32 2.14,3.9 4.28,3.94 0.9,0.02 1.83,0 2.73,0l8.22 0c0.84,0 1.9,0.06 2.71,-0.02 1.62,-0.15 2.72,-1.12 3.33,-2.12 0.35,-0.57 0.59,-1.32 0.61,-2.13 0.02,-0.9 0,-1.83 0,-2.74l0 -8.21c0,-0.84 0.06,-1.91 -0.02,-2.72 -0.15,-1.57 -1.14,-2.78 -2.14,-3.34 -0.63,-0.35 -1.26,-0.58 -2.14,-0.6 -0.9,-0.02 -1.83,0 -2.73,0 -0.52,0 -10.39,-0.04 -10.93,0.02zm1.18 2.19c-1.28,0.16 -2.13,0.9 -2.58,1.79 -0.31,0.6 -0.35,1.07 -0.35,1.84l0 8.76c0,0.66 -0.05,1.53 0.02,2.16 0.13,1.24 0.94,2.18 1.8,2.59 0.63,0.3 1.05,0.34 1.85,0.34l8.76 0c0.65,0 1.56,0.06 2.17,-0.02 1.26,-0.14 2.14,-0.92 2.57,-1.78 0.31,-0.62 0.36,-1.06 0.36,-1.84l0 -8.76c0,-0.66 0.04,-1.54 -0.03,-2.18 -0.14,-1.25 -0.94,-2.16 -1.79,-2.58 -0.64,-0.31 -1.07,-0.34 -1.86,-0.34l-8.76 0c-0.64,0 -1.56,-0.06 -2.16,0.02zm5.82 6.54c-1.46,-0.05 -2.48,-0.24 -3.48,-0.9 -0.67,-0.44 -1.25,-0.95 -1.63,-1.63 -0.13,-0.23 -0.23,-0.52 -0.36,-0.73 -0.15,0.17 -0.34,0.72 -0.4,1.01 -0.42,2 0.95,3 1.03,3.17 -0.62,0.27 -1.24,-0.13 -1.72,-0.32 -0.06,0.63 0.76,1.43 1.01,1.64 0.25,0.21 0.45,0.38 0.73,0.58 0.4,0.27 0.71,0.38 0.87,0.48l-0.16 0.05c-0.06,0 -0.14,0 -0.21,0 -0.55,0.01 -0.73,-0.08 -1.17,-0.13 0.1,0.48 0.83,1.08 1.13,1.33 0.53,0.43 0.86,0.64 1.75,0.73 -0.23,0.29 -1.21,0.82 -1.63,0.98 -0.84,0.33 -1.31,0.31 -2.27,0.29 0.02,0.03 0.01,0.02 0.04,0.05 0.13,0.11 0.67,0.37 0.81,0.43 1.02,0.46 2.16,0.64 3.32,0.63 2.93,-0.02 5.18,-1.51 6.56,-3.95 1.24,-2.21 0.93,-4.09 1.02,-4.27 0.13,-0.13 0.24,-0.19 0.37,-0.31 0.29,-0.28 0.77,-0.75 0.94,-1.1 -0.34,0.08 -0.89,0.38 -1.47,0.4 0.07,-0.08 0.25,-0.2 0.35,-0.28 0.13,-0.11 0.2,-0.2 0.32,-0.34 0.13,-0.16 0.39,-0.58 0.43,-0.87 -0.29,0.1 -0.52,0.34 -1.47,0.6 -0.29,0.07 -0.25,-0.03 -0.43,-0.18 -1.22,-0.99 -2.79,-0.87 -3.82,0.34 -0.52,0.6 -0.51,1.33 -0.46,2.3z"/>
  <path class="fil2" d="M-19.77 23.31l0 0c0.46,0 0.84,0.38 0.84,0.84l0 0c0,0.46 -0.38,0.84 -0.84,0.84l0 0c-0.46,0 -0.84,-0.38 -0.84,-0.84l0 0c0,-0.46 0.38,-0.84 0.84,-0.84z"/>
  <path class="fil3" d="M-19.77 25.84l0 0c0.46,0 0.84,0.37 0.84,0.83l0 0c0,0.47 -0.38,0.84 -0.84,0.84l0 0c-0.46,0 -0.84,-0.37 -0.84,-0.84l0 0c0,-0.46 0.38,-0.83 0.84,-0.83z"/>
 </g>
</svg>
